<svg width="93" height="69" viewBox="0 0 93 69" fill="none" xmlns="http://www.w3.org/2000/svg">
<path d="M9.0457 0.0906601C8.84953 0.128403 8.40633 0.211449 8.06485 0.271843C4.25766 0.989021 1.07531 4.24274 0.297891 8.19854C-0.0290625 9.89711 -0.0290624 9.73103 0.0653907 17.6728C0.138047 23.5914 0.138047 28.6117 0.0726563 41.4831C0.0217969 50.4516 5.86733e-08 58.1594 0.0217969 58.6199C0.210703 62.6285 2.00531 65.7463 5.18039 67.6186C6.05953 68.1319 7.38188 68.6075 8.40633 68.7736C8.93672 68.8566 65.3543 69.0227 77.4879 68.9774C84.5283 68.9548 84.2522 68.9699 85.8434 68.5094C86.6499 68.2753 88.2192 67.4751 88.8949 66.9467C90.0647 66.0408 91.1037 64.7725 91.7867 63.4136C92.3171 62.3567 92.5931 61.481 92.8184 60.1448L93 59.0351L92.9855 33.73L92.9637 8.41747L92.7239 7.58705C92.4406 6.59055 91.6922 4.99011 91.1691 4.26539C90.6823 3.58595 89.6942 2.55926 89.0403 2.05346C88.3791 1.54012 86.8097 0.732346 86.0178 0.498322C85.669 0.392632 84.9424 0.241646 84.4048 0.1586L83.4239 6.86646e-05L46.4128 0.00762177C24.3762 0.0151672 9.26367 0.0453644 9.0457 0.0906601ZM83.453 5.44307C83.482 5.49591 76.2746 13.0376 65.6377 24.0897C51.6077 38.6672 47.6916 42.6985 47.4155 42.842C46.9287 43.0986 46.4274 43.0911 45.9478 42.842C45.6717 42.691 41.4577 38.3653 27.6893 24.0897C16.5148 12.5092 9.8086 5.50346 9.83766 5.45061C9.91031 5.32228 83.3803 5.32228 83.453 5.44307ZM88.0449 34.0169L88.0231 59.8277L87.8632 60.4015C87.4781 61.8132 86.7661 62.7719 85.7271 63.2928C85.422 63.4438 85.095 63.5646 84.9933 63.5646C84.8553 63.5646 82.1815 60.8242 72.3075 50.5497C65.427 43.3931 59.7961 37.4896 59.7961 37.4292C59.7961 37.2857 87.9359 8.0702 88.0013 8.13814C88.0376 8.17589 88.0521 19.8168 88.0449 34.0169ZM19.5082 22.7233L33.3856 37.1423L20.6634 50.361L7.93406 63.5873L7.51266 63.3834C6.66258 62.9758 6.11766 62.3341 5.75438 61.2923L5.5582 60.7337L5.53641 34.5152C5.52914 20.1037 5.54367 8.30423 5.57274 8.30423C5.60906 8.30423 11.8793 14.7966 19.5082 22.7233ZM41.3705 45.3785C44.3639 48.5114 45.8606 50.0213 46.0423 50.0968C46.3838 50.2478 46.9868 50.2478 47.3428 50.0892C47.5463 50.0062 48.8395 48.7153 51.9129 45.5219C54.2742 43.0684 56.236 41.0679 56.2723 41.0679C56.3813 41.0679 78.1055 63.6628 78.1055 63.7684C78.1055 63.8439 71.7335 63.8666 46.391 63.8666C21.0848 63.8666 14.6766 63.8439 14.6766 63.776C14.6766 63.6326 36.7059 40.7659 36.844 40.7659C36.9094 40.7659 38.9438 42.842 41.3705 45.3785Z" fill="#9E9E9E"/>
</svg>
